<svg width="14" height="14" viewBox="0 0 14 14" fill="none" xmlns="http://www.w3.org/2000/svg">
<path d="M1.34066 7.9358H10.649L6.58232 12.0025C6.25732 12.3275 6.25732 12.8608 6.58232 13.1858C6.90732 13.5108 7.43232 13.5108 7.75732 13.1858L13.249 7.69413C13.574 7.36913 13.574 6.84413 13.249 6.51913L7.76566 1.01913C7.60996 0.863085 7.39859 0.775391 7.17816 0.775391C6.95773 0.775391 6.74635 0.863085 6.59066 1.01913C6.26566 1.34413 6.26566 1.86913 6.59066 2.19413L10.649 6.26913H1.34066C0.882324 6.26913 0.507324 6.64413 0.507324 7.10246C0.507324 7.5608 0.882324 7.9358 1.34066 7.9358Z" fill="white"/>
</svg>
