<svg width="1185" height="367" viewBox="0 0 1185 367" fill="none" xmlns="http://www.w3.org/2000/svg">
<path d="M247.55 2.3H286C313.56 2.3 326.09 21.42 326.09 38C326.09 54.58 313.52 73.7 286 73.7H273.89V102.47H247.5V2.3H247.55ZM283.41 51.11C294 51.11 299 44.76 299 38C299 31.24 294 24.89 283.46 24.89H273.99V51.11H283.41ZM339.74 2.3H378C405.56 2.3 417.79 21.42 417.79 38C417.782 43.5235 416.469 48.9669 413.957 53.8866C411.446 58.8062 407.808 63.063 403.34 66.31L421.26 102.47H391.61L377.74 73.7H366.14V102.47H339.74V2.3ZM374.86 51.11C385.55 51.11 390.69 44.76 390.69 38C390.69 31.24 385.55 24.89 374.86 24.89H366.14V51.11H374.86ZM435.86 2.3H502V24.13H462.18V41.13H496.25V63H462.18V80.62H503.6V102.46H435.79V2.3H435.86ZM516.57 68.44H543.26C543.72 77.79 552.15 81.72 560.13 81.72C567.35 81.72 574.28 78.54 574.28 73.28C574.28 58.67 518.08 70.28 518.08 31.69C518.08 12.69 534.36 0.5 556.79 0.5C584.68 0.5 598.54 17.24 599.59 37.12H572.87C572.41 28.39 566.11 23.12 557.63 23.12C550.41 23.12 545.11 25.54 545.11 31.39C545.11 49.01 601.31 33.81 601.31 73.27C601.31 92.1 584.57 104.27 560.47 104.27C534.25 104.27 517.67 91.61 516.47 68.4L516.57 68.44ZM634.37 25.64H606.15V2.3H689V25.64H660.73V102.51H634.34L634.37 25.64ZM715.17 2.3H748.17L782.53 102.51H754.6L749 84.6H713.43L707.83 102.51H680.57L715.06 2.3H715.17ZM742.17 62.72L731.31 28.35L720.4 62.72H742.17ZM786.72 68.44H813.4C813.86 77.79 822.3 81.72 830.27 81.72C837.5 81.72 844.43 78.54 844.43 73.28C844.43 58.67 788.22 70.28 788.22 31.69C788.22 12.69 804.51 0.5 826.93 0.5C854.83 0.5 868.69 17.24 869.73 37.12H843C842.54 28.39 836.24 23.12 827.76 23.12C820.53 23.12 815.27 25.54 815.27 31.39C815.27 49.01 871.48 33.81 871.48 73.27C871.48 92.1 854.73 104.27 830.64 104.27C804.42 104.27 787.84 91.61 786.64 68.4L786.72 68.44ZM887.6 2.3H914V40.71H949.7V2.3H976.09V102.51H949.7V62.59H914V102.51H887.6V2.3ZM990.4 52.2C990.4 21.46 1010.91 0.5 1040.89 0.5C1070.87 0.5 1091.54 21.5 1091.54 52.2C1091.54 82.9 1071.04 104.35 1040.89 104.35C1010.74 104.35 990.4 83.26 990.4 52.2ZM1040.89 81.72C1054.89 81.72 1064.4 69.65 1064.4 52.2C1064.4 34.75 1054.92 23.09 1040.89 23.09C1026.86 23.09 1017.54 34.82 1017.54 52.2C1017.54 69.58 1027 81.72 1040.89 81.72ZM1105.89 2.3H1144.31C1171.87 2.3 1184.39 21.42 1184.39 38C1184.39 54.58 1171.91 73.7 1144.31 73.7H1132.24V102.47H1105.85V2.3H1105.89ZM1141.76 51.11C1152.32 51.11 1157.29 44.76 1157.29 38C1157.29 31.24 1152.29 24.89 1141.76 24.89H1132.28V51.11H1141.76Z" fill="#010101"/>
<path d="M281.29 133.13H298.15L334.43 234.13H321.22L311.81 207.25H267L257.43 234.13H244.25L281.29 133.13ZM307.87 195.84L289.64 144.06L271.12 195.84H307.87Z" fill="#010101"/>
<path d="M345.87 198.27V133.13H358.32V198.27C358.32 214.98 370.32 223.63 384.14 223.63C397.96 223.63 409.79 214.98 409.79 198.27V133.13H422.24V198.27C422.24 223.17 404.33 235.77 384.14 235.77C363.95 235.77 345.87 223.17 345.87 198.27Z" fill="#010101"/>
<path d="M467.39 144.52H436.26V133.13H511.12V144.52H479.84V234.1H467.39V144.52Z" fill="#010101"/>
<path d="M516.47 183.54C516.47 152.54 536.36 131.47 565.47 131.47C594.58 131.47 614.36 152.57 614.36 183.54C614.36 214.51 594.47 235.77 565.47 235.77C536.47 235.77 516.47 214.52 516.47 183.54ZM601.65 183.54C601.65 159.86 586.92 143.61 565.51 143.61C544.1 143.61 529.22 159.86 529.22 183.54C529.22 207.22 543.95 223.63 565.51 223.63C587.07 223.63 601.65 207.37 601.65 183.54Z" fill="#010101"/>
<path d="M632.38 133.13H650.3L686.88 216.94L723.48 133.13H741.39V234.13H728.94V151.81L692.8 234.25H681L644.86 151.81V234.1H632.38V133.13Z" fill="#010101"/>
<path d="M794.29 133.13H811.15L847.43 234.13H834.23L824.82 207.25H780L770.43 234.13H757.25L794.29 133.13ZM820.87 195.84L802.65 144.06L784.13 195.84H820.87Z" fill="#010101"/>
<path d="M872.08 144.52H841V133.13H915.86V144.52H884.53V234.1H872.08V144.52Z" fill="#010101"/>
<path d="M929.81 133.13H942.26V234.13H929.81V133.13Z" fill="#010101"/>
<path d="M960.2 183.54C960.2 152.54 980.09 131.47 1009.2 131.47C1038.2 131.47 1058.09 152.57 1058.09 183.54C1058.09 214.51 1038.2 235.77 1009.2 235.77C980.09 235.77 960.2 214.52 960.2 183.54ZM1045.38 183.54C1045.38 159.86 1030.65 143.61 1009.24 143.61C987.83 143.61 973 159.86 973 183.54C973 207.22 987.73 223.63 1009.29 223.63C1030.85 223.63 1045.38 207.37 1045.38 183.54Z" fill="#010101"/>
<path d="M1076.1 133.13H1088.41L1145.8 213V133.13H1158.25V234.13H1146L1088.6 154.27V234.1H1076.1V133.13Z" fill="#010101"/>
<path d="M510.6 309.45C510.592 308.275 511.045 307.145 511.862 306.301C512.68 305.458 513.796 304.969 514.97 304.94C516.158 304.963 517.291 305.446 518.13 306.287C518.969 307.128 519.449 308.262 519.47 309.45C519.441 310.622 518.954 311.737 518.112 312.554C517.271 313.371 516.143 313.826 514.97 313.82C513.811 313.82 512.699 313.36 511.88 312.54C511.06 311.721 510.6 310.609 510.6 309.45ZM545.6 318.96C547.72 318.96 549.11 320.16 549.11 322.74C548.873 325.27 548.249 327.749 547.26 330.09C545.53 334.73 543.75 340.09 541.83 346.09C540.96 343.18 539.31 338.54 537.25 333.24L535.46 328.33C534.63 326.346 534.117 324.243 533.94 322.1C533.89 321.709 533.922 321.312 534.034 320.934C534.147 320.556 534.337 320.206 534.594 319.906C534.85 319.606 535.166 319.364 535.522 319.194C535.878 319.024 536.266 318.931 536.66 318.92V318H521.66V318.86C523.72 319.06 525.38 320.98 527.56 326.86L537 352.1C537.63 353.53 537.922 355.085 537.855 356.645C537.787 358.206 537.361 359.73 536.61 361.1C535.48 363.48 533.96 364.68 532.1 364.68C529.78 364.68 528.59 363.68 528.59 361.63C528.59 360.83 530.11 359.25 530.11 357.72C530.11 355.6 528.46 354.61 526.6 354.61C526.011 354.587 525.425 354.689 524.878 354.909C524.332 355.13 523.839 355.464 523.432 355.889C523.024 356.315 522.712 356.822 522.515 357.377C522.318 357.932 522.241 358.523 522.29 359.11C522.381 361.145 523.273 363.061 524.772 364.44C526.271 365.819 528.255 366.549 530.29 366.47C531.287 366.505 532.28 366.341 533.213 365.988C534.145 365.634 534.998 365.098 535.72 364.41C536.52 363.82 537.51 361.76 538.04 360.77C538.449 359.986 538.784 359.166 539.04 358.32C539.51 357.19 539.77 356.26 539.97 355.67C540.17 355.08 540.57 354.08 541.03 352.55L542.09 349.17C544.94 340.29 547.66 332.54 550.24 325.98C551.77 322.2 553.75 319.98 554.75 319.48C555.289 319.195 555.87 318.996 556.47 318.89V318H545.58V319L545.6 318.96ZM441 350.31C439.08 349.98 437.42 348.25 437.42 344.61V300.67L426.49 303.06V304C428.34 303.8 430.2 305.45 430.2 309V344.66C430.2 348.1 428.34 350.09 426.49 350.36L425.96 350.42C425.014 350.488 424.065 350.32 423.2 349.93C421.62 349.194 420.314 347.975 419.47 346.45L414.4 338.36C413.334 336.664 411.748 335.359 409.879 334.638C408.01 333.917 405.959 333.82 404.03 334.36L409.73 328.07C414.03 323.3 418.01 320.25 421.79 318.99V318H409.22V318.86C412.47 320.12 412.22 322.86 408.56 327.28L400.56 336.62V300.62L389.62 303.01V304C391.48 304 393.34 305.85 393.34 309.1V344.62C393.34 348.53 391.55 350.05 389.62 350.32V351.18H404.14V350.32C401.75 349.99 400.56 348.13 400.56 344.62V338.06L403.67 334.61L411.21 347C413 350 414.65 351.18 417.3 351.18H442.51V350.5C442.51 350.5 441.8 350.5 440.96 350.32L441 350.31ZM474.64 350.41V351.27C474.64 351.27 467.2 353.96 464.95 349.41C464.364 348.209 464.044 346.896 464.01 345.56C462.988 347.537 461.438 349.19 459.53 350.337C457.623 351.483 455.435 352.076 453.21 352.05C447.84 352.05 444 349.54 444 344.05C443.999 342.657 444.413 341.296 445.19 340.14C446.78 337.75 448.64 336.49 452.08 335.14C453.81 334.48 455.27 334.01 456.39 333.68C457.51 333.35 458.97 333.02 460.7 332.68L464.01 331.88V327.88C464.01 321.26 461.16 318.28 457.19 318.28C454.07 318.28 452.28 320.33 452.28 322.71C452.28 324.04 453.21 325.96 453.21 327.35C453.21 329.21 451.56 330.54 449.21 330.54C446.86 330.54 445.69 328.75 445.69 326.36C445.69 323.97 446.89 321.79 449.34 319.93C451.691 318.108 454.586 317.129 457.56 317.15C466.86 317.15 470.92 321.56 471.07 331.25V345.85V346.05C471.07 347.05 471.35 350.88 474.61 350.36L474.64 350.41ZM464 332.9C463.61 333.1 462.68 333.43 461.15 334.03L458.15 335.15C457.38 335.51 456.82 335.81 455.7 336.41C454.833 336.82 454.048 337.382 453.38 338.07C452.253 339.334 451.596 340.948 451.52 342.64C451.52 346.55 453.64 348.64 456.89 348.64C458.657 348.586 460.348 347.906 461.66 346.72C462.439 346.096 463.061 345.298 463.474 344.389C463.888 343.481 464.082 342.487 464.04 341.49V332.9H464ZM586.7 334.61C586.73 336.896 586.303 339.165 585.445 341.284C584.586 343.403 583.313 345.33 581.7 346.95C580.183 348.572 578.35 349.865 576.314 350.751C574.277 351.637 572.081 352.096 569.861 352.101C567.64 352.106 565.442 351.656 563.402 350.778C561.363 349.901 559.524 348.615 558 347C554.792 343.7 553.026 339.262 553.09 334.66C553.048 332.382 553.46 330.118 554.303 328C555.146 325.883 556.403 323.956 558 322.33C559.51 320.696 561.342 319.392 563.381 318.501C565.419 317.609 567.62 317.149 569.845 317.149C572.07 317.149 574.271 317.609 576.309 318.501C578.348 319.392 580.18 320.696 581.69 322.33C583.304 323.936 584.576 325.852 585.432 327.962C586.288 330.072 586.709 332.333 586.67 334.61H586.7ZM575.86 322.88C574.55 320.31 572.86 318.81 570.81 318.41C566.71 317.58 563.08 321.79 561.73 328.5C561.155 331.504 561.016 334.576 561.32 337.62C561.616 340.671 562.463 343.642 563.82 346.39C565.13 348.95 566.82 350.45 568.88 350.86C572.98 351.68 576.71 347.29 578.07 340.52C579.21 334.86 578.63 327.97 575.86 322.88ZM518.86 344.61V318H495.49V318.8C498.6 319.26 500.08 321.61 498.67 325.43C491.38 345.24 491.84 344.35 491.38 345.94C490.91 344.42 489.85 340.67 488.13 335.94C486.41 331.21 485.28 328.12 484.82 326.73C483.03 321.23 483.62 319.18 486.54 318.85V318H471.43V318.86C473.68 319.32 475.67 321.91 477.33 326.55L479.65 332.55C482.2 339.06 485.19 348.06 486.19 351.1H491.19C492.81 346.4 499.29 327.57 500.19 325.66C500.913 323.799 501.997 322.1 503.38 320.66C504.594 319.497 506.199 318.83 507.88 318.79C507.88 318.79 511.52 318.63 511.52 322.3V344.52C511.52 348.24 509.73 349.96 507.88 350.22V351.09H522.32V350.22C520.4 349.96 518.81 348.22 518.81 344.52L518.86 344.61Z" fill="#010101"/>
<path d="M610 300.67H584.61V318H610L605 309.32L610 300.67Z" fill="#010101"/>
<path d="M611.35 316.8V318H611.22V316.8H610.75V316.69H611.83V316.8H611.35Z" fill="#010101"/>
<path d="M612.61 318L612.15 316.84V318H612V316.66H612.18L612.64 317.83L613.1 316.66H613.27V318H613.15V316.84L612.69 318H612.59H612.61Z" fill="#010101"/>
<path d="M261.88 351.16L267.33 329.48L270.51 316.75H270.63L273.76 329.48L279.13 351.16H286.78L297.11 309.22H290.44L286.05 329.44L283 343.31H282.83L279.54 329.44L274.62 309.22H267.05L262.05 329.44L258.67 343.39H258.51L255.58 329.44L251.31 309.22H244.39L254.32 351.16H261.96H261.88Z" fill="#010101"/>
<path d="M307.49 314.31C310.17 314.31 311.35 312.88 311.35 310.89V309.89C311.35 307.89 310.21 306.47 307.49 306.47C304.77 306.47 303.58 307.9 303.58 309.89V310.89C303.58 312.88 304.8 314.31 307.49 314.31Z" fill="#010101"/>
<path d="M310.74 319.92H304.19V351.16H310.74V319.92Z" fill="#010101"/>
<path d="M334.58 351.16V345.79H328.52V325.25H335.07V319.88H328.52V311.34H322.62V316.79C322.62 318.94 321.89 319.79 319.73 319.79H317.09V325.16H322V344.28C322 348.55 324.4 351.07 328.92 351.07H334.61L334.58 351.16Z" fill="#010101"/>
<path d="M341.82 351.16H348.37V330.16C348.37 326.54 351.75 324.79 355.17 324.79C359.17 324.79 361.07 327.27 361.07 332.07V351.07H367.62V331.27C367.62 323.58 363.83 319.15 357.45 319.15C355.542 319.038 353.649 319.554 352.061 320.62C350.474 321.685 349.279 323.241 348.66 325.05H348.37V306.66H341.82V351.16Z" fill="#010101"/>
<path d="M0.680016 2.29999H89.68C153.57 2.29999 182.51 46.64 182.51 85.02C182.51 123.4 153.51 167.74 89.68 167.74H61.73V234.42H0.640015V2.29999H0.680016Z" fill="#010101"/>
<path d="M39.5 83.94L88.85 127C89.1369 127.252 89.4818 127.43 89.8538 127.517C90.2259 127.604 90.6136 127.598 90.9827 127.499C91.3518 127.4 91.6907 127.211 91.9693 126.95C92.248 126.688 92.4577 126.362 92.58 126L119 45.91C119.142 45.4768 119.154 45.0113 119.033 44.5716C118.912 44.1319 118.665 43.7375 118.321 43.4377C117.978 43.1379 117.554 42.946 117.102 42.8859C116.65 42.8259 116.19 42.9003 115.78 43.1L40.02 80.1C39.6737 80.2663 39.3742 80.516 39.1483 80.8267C38.9223 81.1374 38.7771 81.4993 38.7255 81.8799C38.674 82.2606 38.7177 82.6481 38.8529 83.0076C38.9881 83.3672 39.2104 83.6876 39.5 83.94ZM87.78 116.4L75.57 105.74C75.1883 105.409 74.9258 104.961 74.8228 104.466C74.7198 103.971 74.7821 103.456 75 103L86.83 79.51L65 94.25C64.5752 94.5369 64.0678 94.6757 63.5562 94.645C63.0445 94.6142 62.5573 94.4157 62.17 94.08L49.87 83.34L103.29 57.34C103.7 57.142 104.16 57.0693 104.612 57.1309C105.063 57.1926 105.487 57.3858 105.829 57.6866C106.172 57.9874 106.418 58.3824 106.537 58.8223C106.656 59.2622 106.643 59.7274 106.5 60.16L87.78 116.4Z" fill="#A4DBE8"/>
</svg>
